<svg xmlns="http://www.w3.org/2000/svg" style="display:none" aria-hidden="true">

  <!-- ── Navigation & UI ────────────────────────────── -->

  <symbol id="icon-moon" viewBox="0 0 24 24" fill="none"
    stroke="currentColor" stroke-width="2" stroke-linecap="round" stroke-linejoin="round">
    <path d="M21 12.79A9 9 0 1 1 11.21 3 7 7 0 0 0 21 12.79z"/>
  </symbol>

  <symbol id="icon-sun" viewBox="0 0 24 24" fill="none"
    stroke="currentColor" stroke-width="2" stroke-linecap="round" stroke-linejoin="round">
    <circle cx="12" cy="12" r="5"/>
    <line x1="12" y1="1"     x2="12" y2="3"/>
    <line x1="12" y1="21"    x2="12" y2="23"/>
    <line x1="4.22" y1="4.22"   x2="5.64" y2="5.64"/>
    <line x1="18.36" y1="18.36" x2="19.78" y2="19.78"/>
    <line x1="1"  y1="12" x2="3"  y2="12"/>
    <line x1="21" y1="12" x2="23" y2="12"/>
    <line x1="4.22" y1="19.78"  x2="5.64" y2="18.36"/>
    <line x1="18.36" y1="5.64"  x2="19.78" y2="4.22"/>
  </symbol>

  <symbol id="icon-keyboard" viewBox="0 0 24 24" fill="none"
    stroke="currentColor" stroke-width="2" stroke-linecap="round" stroke-linejoin="round">
    <rect x="2" y="6" width="20" height="12" rx="2"/>
    <path d="M6 10h.01"/>
    <path d="M10 10h.01"/>
    <path d="M14 10h.01"/>
    <path d="M18 10h.01"/>
    <path d="M8 14h8"/>
    <path d="M6 14h.01"/>
    <path d="M18 14h.01"/>
  </symbol>

  <symbol id="icon-close" viewBox="0 0 24 24" fill="none"
    stroke="currentColor" stroke-width="2.5" stroke-linecap="round" stroke-linejoin="round">
    <line x1="18" y1="6"  x2="6"  y2="18"/>
    <line x1="6"  y1="6"  x2="18" y2="18"/>
  </symbol>

  <symbol id="icon-chevron-right" viewBox="0 0 24 24" fill="none"
    stroke="currentColor" stroke-width="2.5" stroke-linecap="round" stroke-linejoin="round">
    <polyline points="9,18 15,12 9,6"/>
  </symbol>

  <!-- ── Actions ────────────────────────────────────── -->

  <symbol id="icon-import" viewBox="0 0 24 24" fill="none"
    stroke="currentColor" stroke-width="2" stroke-linecap="round" stroke-linejoin="round">
    <path d="M14 2H6a2 2 0 0 0-2 2v16a2 2 0 0 0 2 2h12a2 2 0 0 0 2-2V8z"/>
    <polyline points="14,2 14,8 20,8"/>
    <line x1="12" y1="18" x2="12" y2="12"/>
    <polyline points="9,15 12,18 15,15"/>
  </symbol>

  <symbol id="icon-copy" viewBox="0 0 24 24" fill="none"
    stroke="currentColor" stroke-width="2" stroke-linecap="round" stroke-linejoin="round">
    <rect x="9" y="9" width="13" height="13" rx="2"/>
    <path d="M5 15H4a2 2 0 0 1-2-2V4a2 2 0 0 1 2-2h9a2 2 0 0 1 2 2v1"/>
  </symbol>

  <symbol id="icon-copy-check" viewBox="0 0 24 24" fill="none"
    stroke="currentColor" stroke-width="2" stroke-linecap="round" stroke-linejoin="round">
    <path d="M5 15H4a2 2 0 0 1-2-2V4a2 2 0 0 1 2-2h9a2 2 0 0 1 2 2v1"/>
    <rect x="9" y="9" width="13" height="13" rx="2"/>
    <polyline points="13,14 15,16 19,12"/>
  </symbol>

  <symbol id="icon-download" viewBox="0 0 24 24" fill="none"
    stroke="currentColor" stroke-width="2" stroke-linecap="round" stroke-linejoin="round">
    <path d="M21 15v4a2 2 0 0 1-2 2H5a2 2 0 0 1-2-2v-4"/>
    <polyline points="7,10 12,15 17,10"/>
    <line x1="12" y1="15" x2="12" y2="3"/>
  </symbol>

  <symbol id="icon-trash" viewBox="0 0 24 24" fill="none"
    stroke="currentColor" stroke-width="2" stroke-linecap="round" stroke-linejoin="round">
    <polyline points="3,6 5,6 21,6"/>
    <path d="M19 6l-1 14a2 2 0 0 1-2 2H8a2 2 0 0 1-2-2L5 6"/>
    <path d="M10 11v6M14 11v6"/>
    <path d="M9 6V4a1 1 0 0 1 1-1h4a1 1 0 0 1 1 1v2"/>
  </symbol>

  <symbol id="icon-undo" viewBox="0 0 24 24" fill="none"
    stroke="currentColor" stroke-width="2" stroke-linecap="round" stroke-linejoin="round">
    <path d="M3 7v6h6"/>
    <path d="M3 13C5.5 7 11 5 16 7.5S22 16.5 18 20"/>
  </symbol>

  <symbol id="icon-plus" viewBox="0 0 24 24" fill="none"
    stroke="currentColor" stroke-width="2.5" stroke-linecap="round" stroke-linejoin="round">
    <line x1="12" y1="5"  x2="12" y2="19"/>
    <line x1="5"  y1="12" x2="19" y2="12"/>
  </symbol>

  <!-- ── Main feature icons ─────────────────────────── -->

  <symbol id="icon-search" viewBox="0 0 24 24" fill="none"
    stroke="currentColor" stroke-width="2" stroke-linecap="round" stroke-linejoin="round">
    <circle cx="11" cy="11" r="8"/>
    <line x1="21" y1="21" x2="16.65" y2="16.65"/>
  </symbol>

  <symbol id="icon-shield" viewBox="0 0 24 24" fill="none"
    stroke="currentColor" stroke-width="2" stroke-linecap="round" stroke-linejoin="round">
    <path d="M12 22s8-4 8-10V5l-8-3-8 3v7c0 6 8 10 8 10z"/>
  </symbol>

  <symbol id="icon-shield-check" viewBox="0 0 24 24" fill="none"
    stroke="currentColor" stroke-width="2" stroke-linecap="round" stroke-linejoin="round">
    <path d="M12 22s8-4 8-10V5l-8-3-8 3v7c0 6 8 10 8 10z"/>
    <polyline points="9,12 11,14 15,10"/>
  </symbol>

  <symbol id="icon-alert-triangle" viewBox="0 0 24 24" fill="none"
    stroke="currentColor" stroke-width="2" stroke-linecap="round" stroke-linejoin="round">
    <path d="M10.29 3.86L1.82 18a2 2 0 0 0 1.71 3h16.94a2 2 0 0 0 1.71-3L13.71 3.86a2 2 0 0 0-3.42 0z"/>
    <line x1="12" y1="9"  x2="12" y2="13"/>
    <line x1="12" y1="17" x2="12.01" y2="17"/>
  </symbol>

  <symbol id="icon-check-circle" viewBox="0 0 24 24" fill="none"
    stroke="currentColor" stroke-width="2" stroke-linecap="round" stroke-linejoin="round">
    <path d="M22 11.08V12a10 10 0 1 1-5.93-9.14"/>
    <polyline points="22,4 12,14.01 9,11.01"/>
  </symbol>

  <!-- ── Stats & info ───────────────────────────────── -->

  <symbol id="icon-bar-chart" viewBox="0 0 24 24" fill="none"
    stroke="currentColor" stroke-width="2" stroke-linecap="round" stroke-linejoin="round">
    <line x1="18" y1="20" x2="18" y2="10"/>
    <line x1="12" y1="20" x2="12" y2="4"/>
    <line x1="6"  y1="20" x2="6"  y2="14"/>
    <line x1="2"  y1="20" x2="22" y2="20"/>
  </symbol>

  <symbol id="icon-clock" viewBox="0 0 24 24" fill="none"
    stroke="currentColor" stroke-width="2" stroke-linecap="round" stroke-linejoin="round">
    <circle cx="12" cy="12" r="10"/>
    <polyline points="12,6 12,12 16,14"/>
  </symbol>

  <symbol id="icon-settings" viewBox="0 0 24 24" fill="none"
    stroke="currentColor" stroke-width="2" stroke-linecap="round" stroke-linejoin="round">
    <circle cx="12" cy="12" r="3"/>
    <path d="M19.4 15a1.65 1.65 0 0 0 .33 1.82l.06.06a2 2 0 0 1-2.83 2.83l-.06-.06a1.65 1.65 0 0 0-1.82-.33
             1.65 1.65 0 0 0-1 1.51V21a2 2 0 0 1-4 0v-.09A1.65 1.65 0 0 0 9 19.4a1.65 1.65 0 0 0-1.82.33
             l-.06.06a2 2 0 0 1-2.83-2.83l.06-.06A1.65 1.65 0 0 0 4.68 15a1.65 1.65 0 0 0-1.51-1H3
             a2 2 0 0 1 0-4h.09A1.65 1.65 0 0 0 4.6 9a1.65 1.65 0 0 0-.33-1.82l-.06-.06a2 2 0 0 1 2.83-2.83
             l.06.06A1.65 1.65 0 0 0 9 4.68a1.65 1.65 0 0 0 1-1.51V3a2 2 0 0 1 4 0v.09
             a1.65 1.65 0 0 0 1 1.51 1.65 1.65 0 0 0 1.82-.33l.06-.06a2 2 0 0 1 2.83 2.83l-.06.06
             A1.65 1.65 0 0 0 19.4 9a1.65 1.65 0 0 0 1.51 1H21a2 2 0 0 1 0 4h-.09a1.65 1.65 0 0 0-1.51 1z"/>
  </symbol>

  <symbol id="icon-info" viewBox="0 0 24 24" fill="none"
    stroke="currentColor" stroke-width="2" stroke-linecap="round" stroke-linejoin="round">
    <circle cx="12" cy="12" r="10"/>
    <line x1="12" y1="8"  x2="12" y2="8"/>
    <line x1="12" y1="12" x2="12" y2="16"/>
  </symbol>

  <!-- ── Status dots (filled) ───────────────────────── -->

  <symbol id="icon-dot-red" viewBox="0 0 12 12">
    <circle cx="6" cy="6" r="5" fill="#e74c3c"/>
    <circle cx="6" cy="6" r="3" fill="#f1948a"/>
  </symbol>

  <symbol id="icon-dot-green" viewBox="0 0 12 12">
    <circle cx="6" cy="6" r="5" fill="#27ae60"/>
    <circle cx="6" cy="6" r="3" fill="#82e0aa"/>
  </symbol>

  <!-- ── Washing machine (logo) ─────────────────────── -->

  <symbol id="icon-washer" viewBox="0 0 24 24" fill="none"
    stroke="currentColor" stroke-width="1.8" stroke-linecap="round" stroke-linejoin="round">
    <rect x="2" y="2" width="20" height="20" rx="3"/>
    <rect x="2" y="2" width="20" height="5" rx="3" fill="currentColor" opacity="0.12" stroke="none"/>
    <circle cx="5"  cy="4.5" r="0.8" fill="currentColor"/>
    <circle cx="7.5" cy="4.5" r="0.8" fill="currentColor"/>
    <circle cx="12" cy="13" r="5"/>
    <circle cx="12" cy="13" r="3"/>
    <path d="M10 11.5 L11.5 13 L14.5 10.5" stroke-width="1.5"/>
  </symbol>

  <!-- ── Drag & drop ────────────────────────────────── -->

  <symbol id="icon-file-drop" viewBox="0 0 24 24" fill="none"
    stroke="currentColor" stroke-width="2" stroke-linecap="round" stroke-linejoin="round">
    <path d="M14 2H6a2 2 0 0 0-2 2v16a2 2 0 0 0 2 2h12a2 2 0 0 0 2-2V8z"/>
    <polyline points="14,2 14,8 20,8"/>
    <line x1="12" y1="12" x2="12" y2="18"/>
    <polyline points="9,15 12,12 15,15"/>
  </symbol>

</svg>
